name C:/MyDriveSym/Projects/mobilecap/Data\Session20210910_0002\mocap\ForceDataProcessed\walking4_forces.mot
datacolumns 19
datarows 19
range 0.68950000 0.69850000
endheader 
time	R_ground_force_vx	R_ground_force_vy	R_ground_force_vz	R_ground_force_px	R_ground_force_py	R_ground_force_pz	R_ground_torque_x	R_ground_torque_y	R_ground_torque_z	L_ground_force_vx	L_ground_force_vy	L_ground_force_vz	L_ground_force_px	L_ground_force_py	L_ground_force_pz	L_ground_torque_x	L_ground_torque_y	L_ground_torque_z	
          0.68950000	         57.74527900	        154.77583300	          0.27055200	          0.31615800	          0.00600000	         -0.18876600	          0.00000000	         -0.76650200	          0.00000000	       -138.21430700	        863.85985300	         49.95607200	          0.86651900	          0.00600000	         -0.34964000	          0.00000000	          1.83483100	          0.00000000	
          0.69000000	         56.99399900	        152.17252500	          0.34062600	          0.31647600	          0.00600000	         -0.18877500	          0.00000000	         -0.75804900	          0.00000000	       -138.42384900	        866.13012900	         50.17959400	          0.86671400	          0.00600000	         -0.34964600	          0.00000000	          1.83112200	          0.00000000	
          0.69050000	         56.24702400	        149.59107500	          0.40947000	          0.31680000	          0.00600000	         -0.18878400	          0.00000000	         -0.74966100	          0.00000000	       -138.62859200	        868.38552500	         50.40121800	          0.86690900	          0.00600000	         -0.34965300	          0.00000000	          1.82737900	          0.00000000	
          0.69100000	         55.50439000	        147.03149000	          0.47709600	          0.31712900	          0.00600000	         -0.18879400	          0.00000000	         -0.74133900	          0.00000000	       -138.82853600	        870.62592700	         50.62093100	          0.86710400	          0.00600000	         -0.34965900	          0.00000000	          1.82360100	          0.00000000	
          0.69150000	         54.76613200	        144.49377600	          0.54351600	          0.31746400	          0.00600000	         -0.18880300	          0.00000000	         -0.73308400	          0.00000000	       -139.02368400	        872.85122600	         50.83872200	          0.86729900	          0.00600000	         -0.34966500	          0.00000000	          1.81979200	          0.00000000	
          0.69200000	         54.03228200	        141.97793700	          0.60874000	          0.31780500	          0.00600000	         -0.18881200	          0.00000000	         -0.72489700	          0.00000000	       -139.21403800	        875.06130800	         51.05457900	          0.86749300	          0.00600000	         -0.34967100	          0.00000000	          1.81595100	          0.00000000	
          0.69250000	         53.30287300	        139.48397100	          0.67278100	          0.31815300	          0.00600000	         -0.18882100	          0.00000000	         -0.71677900	          0.00000000	       -139.39960300	        877.25606300	         51.26849100	          0.86768700	          0.00600000	         -0.34967700	          0.00000000	          1.81208000	          0.00000000	
          0.69300000	         52.57793600	        137.01187700	          0.73564900	          0.31850800	          0.00600000	         -0.18883000	          0.00000000	         -0.70873100	          0.00000000	       -139.58038100	        879.43538200	         51.48044800	          0.86788000	          0.00600000	         -0.34968300	          0.00000000	          1.80818200	          0.00000000	
          0.69350000	         51.85750100	        134.56164700	          0.79735600	          0.31886900	          0.00600000	         -0.18883900	          0.00000000	         -0.70075400	          0.00000000	       -139.75637600	        881.59915600	         51.69043700	          0.86807400	          0.00600000	         -0.34968800	          0.00000000	          1.80425600	          0.00000000	
          0.69400000	         51.14159800	        132.13327300	          0.85791400	          0.31923800	          0.00600000	         -0.18884800	          0.00000000	         -0.69284900	          0.00000000	       -139.92759200	        883.74727500	         51.89844900	          0.86826700	          0.00600000	         -0.34969400	          0.00000000	          1.80030400	          0.00000000	
          0.69450000	         50.43025300	        129.72674300	          0.91733300	          0.31961400	          0.00600000	         -0.18885700	          0.00000000	         -0.68501800	          0.00000000	       -140.09403500	        885.87963100	         52.10447200	          0.86845900	          0.00600000	         -0.34970000	          0.00000000	          1.79632900	          0.00000000	
          0.69500000	         49.72349400	        127.34204200	          0.97562500	          0.31999800	          0.00600000	         -0.18886600	          0.00000000	         -0.67726100	          0.00000000	       -140.25570700	        887.99611900	         52.30849800	          0.86865200	          0.00600000	         -0.34970500	          0.00000000	          1.79233000	          0.00000000	
          0.69550000	         49.02134800	        124.97915300	          1.03280100	          0.32038900	          0.00600000	         -0.18887500	          0.00000000	         -0.66958000	          0.00000000	       -140.41261600	        890.09663000	         52.51051600	          0.86884400	          0.00600000	         -0.34971100	          0.00000000	          1.78831000	          0.00000000	
          0.69600000	         48.32383800	        122.63805600	          1.08887200	          0.32078900	          0.00600000	         -0.18888400	          0.00000000	         -0.66197500	          0.00000000	       -140.56476600	        892.18106000	         52.71051600	          0.86903600	          0.00600000	         -0.34971600	          0.00000000	          1.78427000	          0.00000000	
          0.69650000	         47.63099000	        120.31872800	          1.14385000	          0.32119800	          0.00600000	         -0.18889300	          0.00000000	         -0.65444900	          0.00000000	       -140.71216400	        894.24930400	         52.90848900	          0.86922700	          0.00600000	         -0.34972100	          0.00000000	          1.78021000	          0.00000000	
          0.69700000	         46.94282500	        118.02114400	          1.19774500	          0.32161600	          0.00600000	         -0.18890100	          0.00000000	         -0.64700200	          0.00000000	       -140.85481500	        896.30125800	         53.10442600	          0.86941800	          0.00600000	         -0.34972700	          0.00000000	          1.77613400	          0.00000000	
          0.69750000	         46.25936600	        115.74527400	          1.25056900	          0.32204300	          0.00600000	         -0.18891000	          0.00000000	         -0.63963500	          0.00000000	       -140.99272700	        898.33681800	         53.29831800	          0.86961000	          0.00600000	         -0.34973200	          0.00000000	          1.77204100	          0.00000000	
          0.69800000	         45.58063500	        113.49108900	          1.30233300	          0.32247900	          0.00600000	         -0.18891900	          0.00000000	         -0.63235100	          0.00000000	       -141.12590600	        900.35588300	         53.49015600	          0.86980000	          0.00600000	         -0.34973700	          0.00000000	          1.76793300	          0.00000000	
          0.69850000	         44.90665100	        111.25855400	          1.35304800	          0.32292600	          0.00600000	         -0.18892700	          0.00000000	         -0.62515000	          0.00000000	       -141.25436000	        902.35835000	         53.67993200	          0.86999100	          0.00600000	         -0.34974200	          0.00000000	          1.76381100	          0.00000000	
